<?xml version="1.0" encoding="utf-8"?><!-- Uploaded to: SVG Repo, www.svgrepo.com, Generator: SVG Repo Mixer Tools -->
<svg fill="#000000" width="800px" height="800px" viewBox="0 0 24 24" id="zoom-square" data-name="Flat Line" xmlns="http://www.w3.org/2000/svg" class="icon flat-line"><path id="secondary" d="M20,3H4A1,1,0,0,0,3,4V20a1,1,0,0,0,1,1H20a1,1,0,0,0,1-1V4A1,1,0,0,0,20,3ZM17,13.38a1,1,0,0,1-1.45.9L13,13v1a1,1,0,0,1-1,1H9a2,2,0,0,1-2-2V10A1,1,0,0,1,8,9h3a2,2,0,0,1,2,2l2.55-1.28a1,1,0,0,1,1.45.9Z" style="fill: rgb(44, 169, 188); stroke-width: 2;"></path><path id="primary" d="M13,14V11a2,2,0,0,0-2-2H8a1,1,0,0,0-1,1v3a2,2,0,0,0,2,2h3A1,1,0,0,0,13,14Zm0-1,2.55,1.28a1,1,0,0,0,1.45-.9V10.62a1,1,0,0,0-1.45-.9L13,11Zm7,8H4a1,1,0,0,1-1-1V4A1,1,0,0,1,4,3H20a1,1,0,0,1,1,1V20A1,1,0,0,1,20,21Z" style="fill: none; stroke: rgb(0, 0, 0); stroke-linecap: round; stroke-linejoin: round; stroke-width: 2;"></path></svg>